<?xml version="1.0" encoding="UTF-8" standalone="no"?>
<svg
   xmlns:dc="http://purl.org/dc/elements/1.1/"
   xmlns:cc="http://creativecommons.org/ns#"
   xmlns:rdf="http://www.w3.org/1999/02/22-rdf-syntax-ns#"
   xmlns:svg="http://www.w3.org/2000/svg"
   xmlns="http://www.w3.org/2000/svg"
   xmlns:sodipodi="http://sodipodi.sourceforge.net/DTD/sodipodi-0.dtd"
   xmlns:inkscape="http://www.inkscape.org/namespaces/inkscape"
   width="12pt"
   height="12pt"
   viewBox="0 0 12 12"
   version="1.1"
   id="svg9"
   sodipodi:docname="Mars.svg"
   inkscape:version="0.92.5 (2060ec1f9f, 2020-04-08)">
  <g
     id="g1413"
     transform="rotate(-45,5.233483,5.4282608)"
     style="fill:none;stroke:#000000;stroke-width:1.1;stroke-miterlimit:4;stroke-dasharray:none;stroke-opacity:1">
    <path
       d="m 5.7118644,10.033898 c 2.2070312,0 4,-1.7929685 4,-3.9999997 0,-2.2070312 -1.7929688,-4 -4,-4 -2.2070312,0 -4,1.7929688 -4,4"
       id="path2"
       inkscape:connector-curvature="0"
       sodipodi:nodetypes="cssc" />
    <path
       d="m 1.7118644,6.0338983 c 0,-0.691406 -0.5585939,-1.25 -1.25,-1.25 -0.6914063,0 -1.25,0.558594 -1.25,1.25 0,0.691406 0.5585937,1.25 1.25,1.25 0.6914061,0 1.25,-0.558594 1.25,-1.25 z m 0,0"
       id="path23"
       inkscape:connector-curvature="0" />
    <path
       d="m 6.9618644,11.283898 c 0,-0.691406 -0.5585939,-1.25 -1.25,-1.25 -0.6914063,0 -1.25,0.558594 -1.25,1.25 0,0.691406 0.5585937,1.25 1.25,1.25 0.6914061,0 1.25,-0.558594 1.25,-1.25 z m 0,0"
       id="path23-3"
       inkscape:connector-curvature="0" />
  </g>
</svg>
