<?xml version="1.0" encoding="UTF-8" standalone="no"?>
<svg
   xmlns:dc="http://purl.org/dc/elements/1.1/"
   xmlns:cc="http://creativecommons.org/ns#"
   xmlns:rdf="http://www.w3.org/1999/02/22-rdf-syntax-ns#"
   xmlns:svg="http://www.w3.org/2000/svg"
   xmlns="http://www.w3.org/2000/svg"
   xmlns:sodipodi="http://sodipodi.sourceforge.net/DTD/sodipodi-0.dtd"
   xmlns:inkscape="http://www.inkscape.org/namespaces/inkscape"
   width="12pt"
   height="12pt"
   viewBox="0 0 12 12"
   version="1.1"
   id="svg9"
   sodipodi:docname="Descending_node_(bold).svg"
   inkscape:version="0.92.5 (2060ec1f9f, 2020-04-08)">
  <metadata
     id="metadata15">
    <rdf:RDF>
      <cc:Work
         rdf:about="">
        <dc:format>image/svg+xml</dc:format>
        <dc:type
           rdf:resource="http://purl.org/dc/dcmitype/StillImage" />
      </cc:Work>
    </rdf:RDF>
  </metadata>
  <defs
     id="defs13" />
  <sodipodi:namedview
     pagecolor="#ffffff"
     bordercolor="#666666"
     borderopacity="1"
     objecttolerance="10"
     gridtolerance="10"
     guidetolerance="10"
     inkscape:pageopacity="0"
     inkscape:pageshadow="2"
     inkscape:window-width="1920"
     inkscape:window-height="1015"
     id="namedview11"
     showgrid="false"
     inkscape:snap-smooth-nodes="true"
     inkscape:snap-midpoints="true"
     inkscape:snap-object-midpoints="true"
     inkscape:snap-intersection-paths="true"
     inkscape:zoom="41.7193"
     inkscape:cx="4.4285115"
     inkscape:cy="8.0306833"
     inkscape:window-x="0"
     inkscape:window-y="0"
     inkscape:window-maximized="1"
     inkscape:current-layer="svg9" />
  <g
     id="g821">
    <path
       style="fill:none;stroke:#000000;stroke-width:0.99975;stroke-linecap:butt;stroke-linejoin:miter;stroke-miterlimit:4;stroke-dasharray:none;stroke-opacity:1"
       d="m 8.828427,3.6533286 c 1.560607,1.5606068 1.560607,4.0962473 3e-7,5.6568541 -1.5606068,1.5606063 -4.0962476,1.5606063 -5.6568543,0 -1.5606067,-1.5606068 -1.5606067,-4.0962475 0,-5.6568543"
       id="path2"
       inkscape:connector-curvature="0"
       sodipodi:nodetypes="cssc" />
    <path
       style="fill:none;stroke:#000000;stroke-width:0.99975;stroke-linecap:butt;stroke-linejoin:miter;stroke-miterlimit:4;stroke-dasharray:none;stroke-opacity:1"
       d="m 3.171573,3.6533284 c -0.4888978,0.4888979 -1.278869,0.488898 -1.7677669,0 -0.48889811,-0.4888981 -0.4888979,-1.2788691 0,-1.7677669 0.4888978,-0.4888979 1.2788688,-0.4888981 1.7677669,0 0.488898,0.4888979 0.4888979,1.2788691 0,1.7677669 z m 0,0"
       id="path23"
       inkscape:connector-curvature="0" />
    <path
       style="fill:none;stroke:#000000;stroke-width:0.99975;stroke-linecap:butt;stroke-linejoin:miter;stroke-miterlimit:4;stroke-dasharray:none;stroke-opacity:1"
       d="m 10.596194,3.6533286 c -0.488898,0.4888979 -1.278869,0.488898 -1.767767,0 -0.488898,-0.488898 -0.4888978,-1.278869 0,-1.7677669 0.4888979,-0.4888979 1.278869,-0.4888981 1.767767,0 0.488898,0.4888979 0.488898,1.2788691 0,1.7677669 z m 0,0"
       id="path23-3"
       inkscape:connector-curvature="0" />
  </g>
</svg>
