<?xml version="1.0" encoding="UTF-8" standalone="no"?>
<svg xmlns:dc="http://purl.org/dc/elements/1.1/" xmlns:cc="http://creativecommons.org/ns#"
   xmlns:rdf="http://www.w3.org/1999/02/22-rdf-syntax-ns#" xmlns:svg="http://www.w3.org/2000/svg"
   xmlns="http://www.w3.org/2000/svg" xmlns:sodipodi="http://sodipodi.sourceforge.net/DTD/sodipodi-0.dtd"
   xmlns:inkscape="http://www.inkscape.org/namespaces/inkscape" width="12pt" height="12pt" viewBox="0 0 12 12"
   version="1.1" id="svg9" sodipodi:docname="Descending_node_(bold).svg"
   style="fill:none;stroke:#000000;stroke-width:1.1;stroke-linecap:butt;stroke-linejoin:miter;stroke-miterlimit:4;stroke-dasharray:none;stroke-opacity:1"
   inkscape:version="0.92.5 (2060ec1f9f, 2020-04-08)">
   <g
      >
      <path
         d="m 8.828427,3.6533286 c 1.560607,1.5606068 1.560607,4.0962473 3e-7,5.6568541 -1.5606068,1.5606063 -4.0962476,1.5606063 -5.6568543,0 -1.5606067,-1.5606068 -1.5606067,-4.0962475 0,-5.6568543" />
      <path
         d="m 3.171573,3.6533284 c -0.4888978,0.4888979 -1.278869,0.488898 -1.7677669,0 -0.48889811,-0.4888981 -0.4888979,-1.2788691 0,-1.7677669 0.4888978,-0.4888979 1.2788688,-0.4888981 1.7677669,0 0.488898,0.4888979 0.4888979,1.2788691 0,1.7677669 z m 0,0" />
      <path
         d="m 10.596194,3.6533286 c -0.488898,0.4888979 -1.278869,0.488898 -1.767767,0 -0.488898,-0.488898 -0.4888978,-1.278869 0,-1.7677669 0.4888979,-0.4888979 1.278869,-0.4888981 1.767767,0 0.488898,0.4888979 0.488898,1.2788691 0,1.7677669 z m 0,0" />
   </g>
</svg>