<?xml version="1.0" encoding="UTF-8" standalone="no"?>
<svg
   version="1.1"
   width="820"
   height="1117"
   viewBox="0 0 820 1117"
   xmlns="http://www.w3.org/2000/svg"
   xmlns:svg="http://www.w3.org/2000/svg">
  <path
     d="m 222.23305,1076.9331 c -27.11937,2.5284 -57.95429,-30.0372 -43.61184,-51.3992 -9.14143,-23.9302 -80.500921,-23.0793 -106.357071,-49.4756 -18.953031,-37.73689 -72.6117907,-63.31931 -52.781172,-112.33947 -0.35668,-60.52775 76.941734,-52.81934 94.833483,-97.86025 13.4311,-45.29011 22.80305,-94.04729 54.77243,-130.65155 31.13681,-48.79906 32.84023,-108.50354 46.87071,-163.2039 14.8433,-40.91108 9.51087,-104.00495 57.14052,-122.43316 40.55211,-11.9724 105.27977,-15.68125 94.07216,-75.53607 10.75601,-40.12759 -41.08462,-79.96434 -16.73145,-113.66624 12.72857,-40.21887 32.84179,-81.275376 64.82157,-111.410463 40.47671,-21.469185 86.85393,-16.214609 120.32205,13.849342 29.69454,26.53854 59.88509,62.087151 97.09381,74.350491 20.46424,9.1602 39.9703,2.17659 18.99851,24.27169 35.53429,5.41102 41.28065,31.05613 82.55629,11.83688 21.40554,-12.85459 59.96188,-15.16667 14.5665,0.30221 -18.18335,13.31866 -86.23652,44.97723 -31.61081,53.08156 11.86421,-4.05086 38.58819,39.44123 31.6146,57.79969 3.07768,-31.71711 -56.85342,-74.9201 -69.24794,-48.74533 14.44428,41.15238 -3.30282,0.76871 -14.56623,-8.58042 7.98044,18.42479 24.51621,59.58655 1.9074,20.10887 -9.96523,-30.54039 -14.98855,-21.83255 -1.22699,2.6433 7.74292,22.53684 57.98695,68.88855 45.80686,74.24837 5.19501,18.02307 36.77149,76.85057 23.2268,71.84361 -6.59746,-13.85354 -7.02342,31.99178 -10.93125,-3.44524 1.21469,-24.48309 -41.38935,-83.4803 -50.53894,-77.16589 -2.89308,-0.95378 32.41546,51.23564 5.7337,19.42757 -27.30866,-49.48833 -6.27717,59.74061 -17.15121,11.89234 12.78253,-23.77427 -32.95564,-66.01128 -23.07936,-22.2746 7.01452,42.03206 61.2886,61.39459 67.64618,98.96128 -14.93645,-16.09864 -37.14954,-39.38011 -23.1728,-0.25356 3.76373,17.13152 -30.73214,-70.61134 -22.66417,-21.84947 18.81064,25.93935 20.68319,47.51995 2.57238,24.08468 4.44549,64.62672 23.16385,128.17893 45.27463,188.83886 24.25144,38.99538 35.94253,83.01266 37.45129,128.65504 21.08944,34.54644 78.17133,51.40464 67.27325,103.86893 -19.11559,38.23236 -45.31371,77.53221 -73.65337,112.51359 -49.77464,23.81308 40.53612,75.10251 -4.3893,97.41971 -45.84522,-28.7414 -92.99777,3.5997 -141.35154,7.4283 -71.92442,12.4109 -144.20652,-4.9913 -215.46135,-14.0227 -47.21603,-17.3613 -93.58988,6.3997 -134.21448,28.5317 -7.09752,2.9735 -15.01161,0.959 -21.81385,-1.6449 z m 32.49168,-252.86944 c 19.56435,-35.12231 39.60332,-70.3796 45.61106,-110.9718 6.74289,-28.6885 -9.48374,-121.95801 -38.91587,-60.76966 -26.36344,48.10604 -47.11414,100.83024 -90.44316,136.86918 -6.9846,17.36368 -56.33015,38.85942 -11.67488,34.02978 30.51373,-2.53211 69.54929,10.13079 95.42285,0.8425 z m 396.71888,-31.5541 C 723.37646,780.8543 639.79272,716.43274 632.61797,679.79802 619.83085,646.35701 616.33608,600.9993 595.32831,575.4925 c -9.83168,41.74029 -34.08755,85.11255 -22.44248,128.47235 23.47171,27.01717 30.69578,108.0979 78.55778,88.54471 z m 1.59598,-426.07732 c -28.23724,-34.03832 -15.11593,-11.51515 0,0 z M 713.9278,342.7839 c -20.79046,-38.29782 -12.13982,-12.76151 0,0 z m -81.38139,-18.5 c -6.01798,-11.1508 -1.88939,10.9412 0,0 z m 66.18664,-11.55 c -4.18178,-7.7783 -7.46481,0.15499 0,0 z m -87.3312,-10.09245 c -5.36983,-22.01205 -4.34846,26.21947 0,0 z m 62.00538,2.07426 c -9.45989,-19.26327 -30.85602,-88.40561 -19.92965,-25.33862 -4.6616,7.49061 23.31085,38.68072 19.92965,25.33862 z m 21.32582,1.50066 c -13.83868,-22.67928 -23.41916,-26.0335 -2.99068,-1.13079 l 2.59427,2.44832 z m -43.8389,-6.28621 c -1.59838,-33.52935 -35.77947,4.38257 0,0 z m -14.60801,-19.17651 c 2.29841,-3.43696 -11.65088,-49.67451 -19.18946,-65.37441 3.36561,9.76694 -0.78488,110.25897 19.18946,65.37441 z m 7.21423,-36.44993 c -8.12996,-35.85099 0.72893,29.98787 0,0 z m 68.16459,-48.67419 c 4.68507,-18.03597 -25.70363,10.99493 0,0 z M 692.14653,339.2449 c -17.68198,-28.84857 15.4168,16.11527 0,0 z"
     />
</svg>
