<?xml version="1.0" encoding="UTF-8" standalone="no"?>

<svg version="1.1" id="svg209" width="820" height="1117" viewBox="0 0 820 1117" xmlns="http://www.w3.org/2000/svg"
   xmlns:svg="http://www.w3.org/2000/svg">
   <path
      d="m 222.23305,1076.9331 c -5.5,-1.93 -15.01514,-4.4968 -21.14476,-5.7041 l -11.14476,-2.1951 -0.58655,-4.2532 c -0.83969,-6.0888 -3.5357,-10.7375 -11.03626,-19.0299 -5.73236,-6.3375 -6.58767,-7.7866 -6.58767,-11.1611 0,-3.1028 0.61507,-4.3956 3.07673,-6.4669 1.69219,-1.4239 3.40734,-2.5889 3.81143,-2.5889 1.30378,0 5.11184,-4.0357 5.11184,-5.4174 0,-0.8197 -2.61897,-1.9964 -6.75,-3.0328 -3.7125,-0.9313 -15.3,-4.6403 -25.75,-8.2422 -10.45,-3.6019 -28.61214,-9.82754 -40.36031,-13.83464 -35.439069,-12.0878 -35.677399,-12.2697 -55.647319,-42.473 -10.3282,-15.6207 -13.33241,-19.4074 -19.30295,-24.3309 -8.02769,-6.6197 -14.07457,-13.991 -17.40779,-21.2204 -1.99668,-4.3306 -2.26996,-6.4473 -2.18817,-16.9487 0.0987,-12.6725 2.15971,-25.4248 5.28936,-32.7274 1.0071,-2.3499 3.05529,-8.5476 4.55153,-13.7726 1.49624,-5.225 3.51278,-11.305 4.48119,-13.5112 2.30177,-5.2437 7.41546,-10.2731 12.78604,-12.5752 2.36935,-1.0156 9.14328,-4.9511 15.05317,-8.7456 13.68675,-8.7877 18.99681,-11.4352 28.05454,-13.9877 19.706789,-5.5533 24.478439,-12.9104 34.787559,-53.6369 1.94307,-7.67615 7.09269,-24.65309 11.4436,-37.72652 10.13146,-30.44255 15.50947,-41.31965 26.67587,-53.95229 5.10113,-5.77095 13.26298,-19.61799 22.02378,-37.36455 9.12595,-18.48626 10.01466,-21.62324 19.26448,-68 2.85212,-14.3 6.76297,-32.075 8.69077,-39.5 1.9278,-7.425 3.90539,-16.425 4.39465,-20 3.93312,-28.73951 23.0667,-98.86584 31.34038,-114.86537 2.48754,-4.81037 10.40307,-11.79937 17.71571,-15.64206 10.67248,-5.60823 34.74184,-13.03765 53.30878,-16.45466 18.96356,-3.49001 25.21665,-5.59323 33.81698,-11.37431 9.25271,-6.2196 10.3654,-8.29447 15.37138,-28.6636 1.41615,-5.76223 1.83229,-11.20724 1.79599,-23.5 -0.0648,-21.94242 -3.19478,-39.12984 -9.3445,-51.31237 -1.58643,-3.1427 -4.79078,-11.78306 -7.12078,-19.20081 -2.32999,-7.41775 -5.79292,-16.59372 -7.69539,-20.39105 -3.00451,-5.997 -3.30621,-7.23965 -2.29599,-9.45685 0.63968,-1.40393 1.95114,-3.10461 2.91437,-3.77928 2.19286,-1.53594 11.2683,-16.24639 14.10326,-22.86009 2.19964,-5.13155 2.71506,-10.69241 1.49912,-16.17416 -1.40024,-6.31264 3.34559,-14.66834 10.37648,-18.26925 1.99332,-1.02088 4.56501,-3.13865 5.71488,-4.70615 3.99181,-5.44161 10.31846,-17.901944 13.88677,-27.349994 6.1057,-16.16643 15.01509,-26.96523 26.0519,-31.576699 2.0599,-0.86068 7.84598,-2.22739 12.85797,-3.03713 10.81345,-1.74704 17.38293,-4.55317 23.92351,-10.21886 2.64595,-2.29202 5.6613,-4.16731 6.70078,-4.16731 3.94381,0 12.74807,2.26009 19.4925,5.0038 3.85226,1.56714 11.27726,3.5565 16.5,4.4208 15.45832,2.55816 20.5957,4.39003 24.53262,8.74773 1.9048,2.108389 3.46328,4.446449 3.46328,5.195689 0,2.92525 4.07871,6.63152 7.32258,6.65394 6.86058,0.0474 16.70762,7.26589 18.23989,13.37091 0.32525,1.29591 1.63182,2.83026 2.9035,3.40967 1.27167,0.57941 4.20396,3.97878 6.5162,7.55415 3.20554,4.95667 5.13682,6.87388 8.13119,8.07199 2.15991,0.86423 4.56366,1.57132 5.34166,1.57132 0.778,0 3.80753,2.39298 6.73229,5.317744 2.92476,2.92476 9.24794,7.5062 14.05151,10.18098 10.07451,5.6098 12.78052,8.14305 16.60557,15.54546 3.6535,7.07041 8.81181,9.95582 17.79828,9.95582 5.20201,0 7.43045,0.57834 12.52284,3.25 5.54091,2.90697 7.23119,3.28628 16.01462,3.59371 5.40093,0.18904 9.81987,0.70701 9.81987,1.15105 0,0.44404 -2.71491,3.15932 -6.03313,6.03394 -7.12383,6.17148 -8.44319,8.21277 -7.02316,10.86612 1.42142,2.65595 6.27113,4.10518 13.73763,4.10518 8.07768,0 12.75942,1.93784 15.36955,6.36168 2.0739,3.515 4.94911,5.51097 4.94911,3.43568 0,-0.62694 -0.74474,-1.96281 -1.65499,-2.96862 -1.55468,-1.7179 -1.52437,-1.82874 0.5,-1.82874 1.18525,0 2.87759,0.8524 3.76076,1.89423 5.45587,6.43597 7.48851,8.05665 11.48621,9.15831 5.83378,1.60763 15.20608,0.0575 23.33615,-3.85963 3.33953,-1.60902 8.32187,-3.61656 11.07187,-4.46121 2.75,-0.84464 10.34954,-3.89209 16.88787,-6.77209 13.15965,-5.79656 19.39934,-7.12585 21.51015,-4.58249 1.13041,1.36207 0.98157,1.71878 -1.03933,2.49084 -22.53412,8.60889 -27.29217,10.79691 -32.85869,15.11023 -1.925,1.49162 -5.75,3.98846 -8.5,5.54854 -2.75,1.56008 -7.08361,5.12893 -9.63024,7.93078 -5.29282,5.82325 -12.56428,10.15019 -18.70861,11.13271 -7.07728,1.1317 -10.00649,6.94061 -6.71223,13.311 4.00479,7.7444 12.95746,11.4929 22.00677,9.21425 5.19912,-1.30915 12.54431,-1.47571 12.54431,-0.28445 0,0.45706 -1.10464,1.42221 -2.45475,2.14476 l -2.45475,1.31375 7.84838,8.38853 c 11.69433,12.49918 18.14284,26.21048 17.99083,38.25344 -0.0642,5.08413 -1.68028,12.02309 -1.85942,7.98366 -0.14227,-3.20786 -4.32286,-14.66295 -8.54547,-23.41516 -6.88803,-14.2768 -10.04636,-17.73984 -21.35418,-23.41437 -9.45564,-4.74506 -20.0218,-8.56781 -20.99412,-7.59549 -0.26584,0.26584 -1.97334,-0.43752 -3.79445,-1.56302 -5.05276,-3.12278 -9.44954,-4.12397 -12.53685,-2.85476 -4.7996,1.97315 -4.40065,7.27026 1.20556,16.00677 3.27837,5.10891 4.69412,11.43683 3.09118,13.81659 -1.82936,2.71592 -3.69881,0.2266 -8.50563,-11.32591 -4.95154,-11.90031 -8.60873,-17.56981 -11.33363,-17.56981 -1.15754,0 -1.35585,0.6551 -0.83248,2.75 1.34545,5.3854 6.94797,17.75964 8.97207,19.81654 1.9212,1.95233 6.55837,13.39583 6.55792,16.18346 -4.5e-4,2.71558 -3.07093,1.03171 -4.99465,-2.7391 -1.1193,-2.19401 -3.77632,-6.68313 -5.9045,-9.97583 -2.12818,-3.29271 -4.18309,-7.68511 -4.56648,-9.7609 -0.87783,-4.75287 -5.96654,-15.56113 -8.18827,-17.39162 -1.51739,-1.25018 -1.61248,-1.11927 -0.9932,1.36719 1.05083,4.21909 9.4537,23.57958 12.91227,29.75026 6.34017,11.31196 11.63519,18.62146 16.38288,22.61573 4.99701,4.20401 8.94264,10.026 17.48344,25.79778 5.37063,9.9176 8.5979,13.90423 10.62583,13.12604 1.60821,-0.61713 6.24247,3.73022 6.24247,5.85598 0,2.37844 -1.72174,2.79972 -4.84385,1.18522 -1.59642,-0.82554 -3.13216,-1.2714 -3.41276,-0.9908 -1.25573,1.25572 2.2669,11.34378 4.65243,13.32359 0.8823,0.73224 1.60418,1.88976 1.60418,2.57226 0,0.6825 2.74378,6.8149 6.0973,13.62755 9.38642,19.0685 18.47174,48.88665 14.89532,48.88665 -0.59195,0 -2.40204,-2.9549 -4.02243,-6.56644 -1.63758,-3.64985 -3.39567,-6.28864 -3.95818,-5.94098 -0.5566,0.344 -1.01201,4.39734 -1.01201,9.00742 0,4.61008 -0.43023,8.64786 -0.95607,8.97285 -2.15359,1.33099 -3.99532,-4.367 -5.00499,-15.48453 -1.76025,-19.38218 -4.16241,-26.60787 -10.53651,-31.69377 -2.03698,-1.62531 -3.50238,-3.68788 -3.5024,-4.92967 -2e-5,-1.17431 -1.9703,-4.54931 -4.37841,-7.5 -2.40811,-2.95068 -4.72267,-6.48988 -5.14346,-7.86488 -0.42079,-1.375 -1.53959,-3.04534 -2.48621,-3.71186 -0.94663,-0.66652 -4.43629,-5.16652 -7.75482,-10 -3.31853,-4.83348 -7.0981,-9.77916 -8.39905,-10.99041 -3.99677,-3.72118 -13.83808,-6.94378 -13.83808,-4.53136 0,0.4215 2.475,2.24673 5.5,4.05606 6.02929,3.60627 7.00271,5.16761 2.75,4.41091 l -2.75,-0.48932 3.12537,3.37799 c 1.71896,1.85789 3.74396,4.58296 4.5,6.0557 0.75605,1.47275 3.28713,5.46153 5.62463,8.86396 2.3375,3.40243 4.25,7.1134 4.25,8.2466 0,1.98733 -0.0923,1.97443 -2.60488,-0.36396 -1.43268,-1.33337 -5.55532,-6.13681 -9.16142,-10.67431 -3.60609,-4.5375 -7.2714,-8.25974 -8.14512,-8.27164 -0.87372,-0.0119 -2.26358,-1.45112 -3.08858,-3.19827 -1.65407,-3.50291 -3.47628,-4.58726 -4.2631,-2.53685 -0.28023,0.73027 0.13788,4.68678 0.92913,8.79226 1.8031,9.3556 2.28134,31.38673 0.71569,32.97012 -1.61246,1.63072 -3.5043,-11.6398 -3.77862,-26.50562 -0.31516,-17.07934 -3.60581,-25.42009 -11.64748,-29.52264 -4.07457,-2.07869 -12.39901,-2.68699 -13.45214,-0.98299 -1.0722,1.73486 1.60072,17.15297 4.68177,27.00563 3.76791,12.0491 3.79432,12.09623 8.16809,14.57587 2.01387,1.14173 3.34787,2.38958 2.96445,2.773 -0.38342,0.38342 0.3126,1.40437 1.5467,2.26877 1.2341,0.8644 4.00398,5.24155 6.15528,9.727 5.23666,10.91843 9.9362,16.06463 23.26774,25.47919 12.76735,9.01614 13.26935,9.50571 18.1246,17.67617 7.78545,13.10142 9.06832,17.59121 5.2372,18.32902 -2.26001,0.43524 -5.91799,-2.9054 -9.06904,-8.28226 -2.81717,-4.80714 -11.85797,-13.60476 -16.38828,-15.94748 -3.563,-1.8425 -4.03601,-0.96808 -1.75612,3.24643 0.78973,1.45986 2.13973,7.46322 3,13.34081 1.81469,12.39843 1.8825,13.81348 0.66196,13.81348 -1.14198,0 -2.90368,-4.79648 -4.59112,-12.5 -1.88071,-8.58585 -9.00491,-24.38706 -12.72639,-28.22665 -3.31152,-3.41662 -7.43762,-4.32999 -8.38678,-1.85652 -0.79376,2.0685 2.46624,13.15556 5.90216,20.07296 1.63635,3.29438 5.57923,9.86256 8.76196,14.59596 5.80607,8.63486 9.414,15.77592 8.45508,16.73484 -0.28243,0.28244 -2.28695,-0.91166 -4.45449,-2.65354 -2.16753,-1.74188 -4.19236,-3.16705 -4.49961,-3.16705 -0.30725,0 -0.55864,1.15156 -0.55864,2.55902 0,1.45136 -0.43284,2.2915 -1,1.94098 -0.55,-0.33992 -1,-2.82564 -1,-5.52383 0,-3.82677 -0.42544,-5.13349 -1.93426,-5.94099 -4.16603,-2.22959 -4.40522,-1.60738 -3.73444,9.71482 0.75901,12.81147 2.05637,20.47952 9.26321,54.75 6.30247,29.96999 5.38628,26.37143 17.31259,68 12.84225,44.82561 12.96437,45.15331 27.20466,73 7.03151,13.75 14.39723,29.18268 16.36827,34.29484 5.64013,14.6284 8.28765,30.22275 10.47594,61.70516 0.97397,14.0122 2.37612,19.2257 7.18705,26.72287 4.50422,7.01919 10.96083,12.21799 19.67296,15.84029 11.61337,4.8286 15.17083,7.794 24.80117,20.6734 10.94369,14.6359 12.69735,17.7711 15.52916,27.7634 1.83365,6.4703 2.27546,10.5816 2.31044,21.5 0.068,21.2317 -1.42028,24.4669 -17.47529,37.9867 -7.01911,5.9107 -12.99184,15.3482 -19.94915,31.5214 -5.5762,12.9626 -6.02509,13.6348 -22.11203,33.1115 -9.03115,10.9342 -20.39244,24.5175 -25.2473,30.1851 -7.74469,9.0413 -8.66563,10.5127 -7.51079,12.0001 0.72394,0.9324 3.47193,4.1625 6.10665,7.1781 2.63472,3.0155 5.32874,7.2796 5.98671,9.47574 0.65797,2.1961 3.12776,7.3788 5.48842,11.5172 6.51783,11.426 8.49174,17.3786 8.96129,27.0242 0.51681,10.6165 -1.2726,14.9704 -6.70526,16.3152 -7.3341,1.8153 -15.7114,0.5615 -22.73889,-3.4033 -13.86911,-7.8247 -16.76748,-8.9869 -23.90602,-9.5854 -9.02168,-0.7563 -16.44429,0.8605 -44.35509,9.6614 -23.0468,7.2671 -33.5709,9.1707 -77.5,14.0182 -36.21091,3.9958 -38.74937,3.8965 -102.5,-4.0102 -8.525,-1.0573 -25.625,-3.0641 -38,-4.4596 -24.89937,-2.8077 -53.49362,-7.477 -64.95425,-10.6067 -15.95022,-4.3556 -42.0153,-4.1317 -54.93995,0.4721 -3.63319,1.2941 -10.6558,3.7957 -15.6058,5.559 -12.05603,4.2947 -25.21005,10.499 -29.5,13.9142 -1.925,1.5325 -8.18173,4.9272 -13.90385,7.5439 -13.84392,6.3305 -17.52059,6.5685 -30.59615,1.9804 z m 32.49168,-252.86944 c 1.40483,-5.0176 8.6105,-18.2427 17.79056,-32.6524 9.02084,-14.1598 15.3727,-29.2793 19.69365,-46.87736 1.28293,-5.225 3.75251,-14.45 5.48796,-20.5 4.57061,-15.93368 4.87439,-24.78678 1.61278,-47 -1.45364,-9.9 -3.70011,-23.39045 -4.99217,-29.97878 -2.23201,-11.38128 -2.53463,-12.13908 -6.06696,-15.19254 -4.95295,-4.28148 -8.96533,-5.12402 -12.38734,-2.60116 -3.11682,2.29787 -13.29457,20.11266 -31.86333,55.77248 -20.99081,40.31117 -28.13481,53.39438 -33.48568,61.32418 -2.93578,4.35071 -15.05901,17.67408 -29.86168,32.81768 -13.70571,14.0215 -24.91947,26.1604 -24.91947,26.9755 0,3.8236 -3.18463,7.3446 -9.24098,10.2169 -3.44246,1.6326 -7.15902,3.2829 -8.25902,3.6672 -4.72469,1.6509 4.05754,2.6775 30,3.5069 14.85,0.4748 33.3,1.355 41,1.9559 7.7,0.601 19.85,1.4651 27,1.9201 7.15,0.4551 13.95402,0.8923 15.12004,0.9715 1.70016,0.1156 2.36792,-0.7412 3.37164,-4.3261 z m 396.71888,-31.5541 c 27.02754,-7.4348 29.34996,-8.2202 30.46484,-10.3034 0.61829,-1.1553 0.87233,-5.2867 0.60696,-9.8709 -0.39266,-6.7829 -1.04036,-9.0304 -4.63764,-16.0927 -2.29968,-4.51475 -7.29584,-12.70866 -11.10258,-18.20866 -29.44618,-42.54403 -31.87047,-46.92604 -35.52527,-64.21346 -2.89428,-13.6901 -6.30344,-24.61018 -11.11993,-35.61892 -1.9194,-4.38703 -5.35778,-16.04397 -7.81655,-26.5 -2.41437,-10.26719 -5.32582,-21.02944 -6.46989,-23.91611 -2.63326,-6.64414 -6.97528,-13.25151 -8.7082,-13.25151 -2.65149,0 -3.23129,1.76117 -14.97894,45.5 -4.13623,15.4 -8.18641,30.25 -9.0004,33 -2.28216,7.7101 -4.41608,22.24583 -4.40416,30 0.0153,9.94628 2.40022,18.8123 7.39375,27.48637 2.37901,4.13249 10.17181,19.02934 17.31733,33.10409 12.98184,25.5708 25.29553,46.4153 29.92659,50.6595 3.73476,3.4229 10.78082,2.9772 28.05409,-1.7743 z m 1.59598,-426.07732 c -2.45105,-4.20824 -16.93013,-19.55094 -17.72771,-18.7851 -0.57506,0.55218 18.03614,21.88676 19.09289,21.88676 0.24274,0 -0.37159,-1.39575 -1.36518,-3.10166 z M 713.9278,342.7839 c -1.06779,-1.5125 -3.39804,-5.675 -5.17834,-9.25 -3.45903,-6.94604 -7.91443,-13.43532 -8.69113,-12.65861 -0.61649,0.61649 2.34512,6.33486 5.28312,10.2008 1.27158,1.67321 3.48788,5.61071 4.92509,8.75 1.47996,3.23266 3.26133,5.70781 4.10791,5.70781 1.21811,0 1.13543,-0.50902 -0.44665,-2.75 z m -81.38139,-18.5 c -0.34058,-3.53234 -3.02642,-4.59772 -3.63424,-1.44159 -0.50735,2.63445 0.52432,4.69159 2.35285,4.69159 1.19681,0 1.51656,-0.81097 1.28139,-3.25 z m 66.18664,-11.55 c 0,-1.30199 -2.2865,-3.2 -3.85499,-3.2 -1.15499,0 -1.08179,0.41237 0.35499,2 1.8592,2.05439 3.5,2.61695 3.5,1.2 z m -87.3312,-10.09245 c -0.59434,-5.78821 -2.6688,-9.571 -2.6688,-4.86657 0,1.45254 -0.45,2.9191 -1,3.25902 -1.10864,0.68518 -1.34976,6.42498 -0.37644,8.96138 0.56567,1.47412 0.80806,1.45851 2.61125,-0.16821 1.67496,-1.51104 1.90058,-2.64158 1.43399,-7.18562 z m 62.00538,2.07426 c -1.62637,-1.69757 -3.43634,-5.47369 -4.5518,-9.49637 -1.01849,-3.673 -3.03768,-8.47016 -4.48709,-10.66037 -1.44941,-2.1902 -2.63697,-5.00434 -2.63903,-6.25363 -0.002,-1.24929 -0.89861,-3.73915 -1.99235,-5.53303 -1.18698,-1.94682 -1.92839,-4.79843 -1.83922,-7.07409 0.10622,-2.71081 -0.87654,-5.633 -3.40094,-10.11248 l -3.55034,-6.29997 -0.68625,3.12449 c -1.52485,6.94259 1.75142,25.48354 6.38321,36.12364 1.55625,3.575 3.23039,7.85 3.72031,9.5 0.5736,1.93184 2.10566,3.60834 4.30289,4.70856 1.87667,0.93971 4.10577,2.40221 4.95356,3.25 0.84779,0.84779 2.6542,1.54144 4.01425,1.54144 h 2.4728 z m 21.32582,1.50066 c 0,-1.18846 -12.02622,-17.00658 -15.72449,-20.68247 -1.34474,-1.33659 -1.37093,-1.22765 -0.24042,1 3.00588,5.92306 14.18328,21 15.5685,21 0.21803,0 0.39641,-0.59289 0.39641,-1.31753 z m -43.8389,-6.28621 c -0.70998,-3.97263 -6.39,-16.37283 -7.25486,-15.83831 -0.49843,0.30805 -0.90624,1.14873 -0.90624,1.86818 0,0.71945 -1.78078,2.48656 -3.95728,3.9269 -7.97056,5.27467 -6.72397,9.47151 2.40663,8.10229 3.97049,-0.59541 4.5323,-0.41296 6.10113,1.98137 1.91942,2.92941 4.13695,2.90457 3.61062,-0.0404 z m -14.60801,-19.17651 c -0.20999,-0.20998 -1.32034,0.1205 -2.46744,0.73441 -1.7105,0.91543 -2.08565,0.82824 -2.08565,-0.48472 0,-3.49324 2.05222,-5.67315 4.71232,-5.00551 2.13014,0.53463 2.45845,0.34404 2.00197,-1.16221 -1.59501,-5.26303 -9.94525,-27.98855 -13.15494,-35.80172 -4.18337,-10.18334 -5.49428,-14.67047 -5.55081,-19 -0.0215,-1.65 -0.45781,-3.66197 -0.96948,-4.47104 -1.83032,-2.89416 -2.27285,0.0108 -1.09393,7.18111 0.65923,4.00946 1.58217,18.08993 2.05098,31.28993 0.92617,26.07738 2.10921,32.69623 6.65691,37.24393 l 2.50441,2.50441 3.88873,-6.3234 c 2.1388,-3.47786 3.71691,-6.4952 3.50693,-6.70519 z m 7.21423,-36.44993 c -3.27556,-14.94812 -5.86543,-17.43739 -3.25965,-3.13303 2.1791,11.96212 2.45461,12.80093 3.77184,11.4837 0.77445,-0.77445 0.62926,-3.14163 -0.51219,-8.35067 z m 68.16459,-48.67419 c 1.13745,-1.5974 2.06809,-3.68357 2.06809,-4.63592 0,-1.48245 -0.66163,-1.64087 -4.59904,-1.10119 -5.2824,0.72403 -11.12059,4.83131 -9.11633,6.41351 4.03193,3.18286 9.10919,2.88801 11.64728,-0.6764 z M 692.14653,339.2449 c -6.17754,-8.42811 -7.11401,-12.09595 -1.64581,-6.44602 3.08588,3.18844 6.98239,10.77197 5.49575,10.69602 -0.41988,-0.0215 -2.15236,-1.93395 -3.84994,-4.25 z" />
</svg>